<svg height="512pt" fill="#DD6316" viewBox="0 0 512 512" width="512pt" xmlns="http://www.w3.org/2000/svg"><path d="m157.234375 350.21875c8.285156 0 15-6.714844 15-15s-6.714844-15-15-15h-6.628906v-8.855469c0-8.285156-6.714844-15-15-15-8.285157 0-15 6.714844-15 15v9.308594c-12.296875 2.308594-21.628907 13.117187-21.628907 26.066406v20.171875c0 14.625 11.902344 26.523438 26.535157 26.523438h16.722656v13.214844h-28.257813c-8.285156 0-15 6.714843-15 15 0 8.28125 6.714844 15 15 15h6.628907v8.855468c0 8.28125 6.714843 15 15 15 8.285156 0 15-6.71875 15-15v-9.3125c12.296875-2.304687 21.628906-13.117187 21.628906-26.066406v-20.171875c0-14.625-11.902344-26.519531-26.535156-26.519531h-16.722657v-13.214844zm0 0"/><path d="m512 135.421875c0-74.671875-60.832031-135.421875-135.605469-135.421875-41.070312 0-77.933593 18.328125-102.820312 47.222656-5.90625-.515625-11.859375-.777344-17.785157-.777344-110.925781 0-201.171874 90.195313-201.171874 201.066407 0 6.601562.324218 13.226562.96875 19.792969-33.679688 24.667968-55.585938 64.460937-55.585938 109.273437 0 74.671875 60.832031 135.421875 135.605469 135.421875 48.328125 0 90.835937-25.378906 114.855469-63.496094 1.777343.046875 3.554687.070313 5.328124.070313 110.925782 0 201.171876-90.195313 201.171876-201.0625 0-1.066407-.011719-2.132813-.027344-3.199219 33.386718-24.691406 55.066406-64.308594 55.066406-108.890625zm-135.605469-105.421875c58.230469 0 105.605469 47.292969 105.605469 105.421875 0 58.132813-47.375 105.425781-105.605469 105.425781s-105.605469-47.292968-105.605469-105.425781c0-58.128906 47.375-105.421875 105.605469-105.421875zm-240.789062 452c-58.230469 0-105.605469-47.292969-105.605469-105.421875 0-58.132813 47.375-105.425781 105.605469-105.425781s105.605469 47.292968 105.605469 105.425781c0 58.128906-47.375 105.421875-105.605469 105.421875zm129.003906-63.648438c4.285156-13.164062 6.601563-27.203124 6.601563-41.777343 0-74.671875-60.832032-135.421875-135.605469-135.421875-18.011719 0-35.210938 3.527344-50.949219 9.921875-.023438-1.1875-.039062-2.378907-.039062-3.5625 0-93.839844 76-170.277344 169.71875-171.058594-8.675782 17.835937-13.546876 37.84375-13.546876 58.96875 0 74.671875 60.832032 135.425781 135.605469 135.425781 17.65625 0 34.53125-3.386718 50.011719-9.542968-6.816406 85-76.082031 152.675781-161.796875 157.046874zm0 0"/><path d="m354.765625 165.492188c-8.285156 0-15 6.71875-15 15 0 8.285156 6.714844 15 15 15h6.628906v8.855468c0 8.285156 6.714844 15 15 15 8.285157 0 15-6.714844 15-15v-9.308594c12.296875-2.304687 21.628907-13.117187 21.628907-26.066406v-20.171875c0-14.625-11.902344-26.523437-26.53125-26.523437h-16.726563v-13.210938h28.257813c8.285156 0 15-6.71875 15-15 0-8.285156-6.714844-15-15-15h-6.628907v-8.855468c0-8.285157-6.714843-15-15-15-8.285156 0-15 6.714843-15 15v9.308593c-12.296875 2.304688-21.628906 13.117188-21.628906 26.066407v20.171874c0 14.625 11.902344 26.519532 26.535156 26.519532h16.722657v13.214844zm0 0"/></svg>